<?xml version="1.0" encoding="UTF-8" standalone="no"?>
<svg
   version="1.1"
   viewBox="0 0 502.33789 540"
   fill="none"
   stroke="none"
   stroke-linecap="square"
   stroke-miterlimit="10"
   id="svg16"
   sodipodi:docname="favicon.svg"
   width="502.33789"
   height="540"
   inkscape:version="1.4.2 (ebf0e940, 2025-05-08)"
   xmlns:inkscape="http://www.inkscape.org/namespaces/inkscape"
   xmlns:sodipodi="http://sodipodi.sourceforge.net/DTD/sodipodi-0.dtd"
   xmlns="http://www.w3.org/2000/svg"
   xmlns:svg="http://www.w3.org/2000/svg">
  <defs
     id="defs16" />
  <sodipodi:namedview
     id="namedview16"
     pagecolor="#ffffff"
     bordercolor="#000000"
     borderopacity="0.25"
     inkscape:showpageshadow="2"
     inkscape:pageopacity="0.0"
     inkscape:pagecheckerboard="0"
     inkscape:deskcolor="#d1d1d1"
     inkscape:zoom="0.44"
     inkscape:cx="287.5"
     inkscape:cy="45.454545"
     inkscape:window-width="1920"
     inkscape:window-height="1027"
     inkscape:window-x="1512"
     inkscape:window-y="25"
     inkscape:window-maximized="1"
     inkscape:current-layer="svg16" />
  <clipPath
     id="p.0">
    <path
       d="M 0,0 H 960 V 540 H 0 Z"
       clip-rule="nonzero"
       id="path1" />
  </clipPath>
  <g
     clip-path="url(#p.0)"
     id="g16"
     transform="translate(-146.92651)">
    <path
       fill="#000000"
       fill-opacity="0"
       d="M 398.7979,64.87664 208.93962,480.84514"
       fill-rule="evenodd"
       id="path3" />
    <path
       stroke="#595959"
       stroke-width="16"
       stroke-linejoin="round"
       stroke-linecap="butt"
       d="M 398.7979,64.87664 208.93962,480.84514"
       fill-rule="evenodd"
       id="path4"
       style="display:inline" />
    <path
       stroke="#595959"
       stroke-width="16"
       stroke-linejoin="round"
       stroke-linecap="butt"
       d="M 398.7979,63.92126 588.65618,478"
       fill-rule="evenodd"
       id="path6"
       style="display:inline" />
    <path
       fill="#0b5394"
       d="m 146.92651,477.03937 v 0 c 0,-34.77219 28.18843,-62.96063 62.96063,-62.96063 v 0 c 16.6982,0 32.71248,6.63333 44.51988,18.44073 11.80742,11.80744 18.44075,27.82172 18.44075,44.5199 v 0 C 272.84777,511.81156 244.65933,540 209.88714,540 v 0 c -34.7722,0 -62.96063,-28.18844 -62.96063,-62.96063 z"
       fill-rule="evenodd"
       id="path7"
       style="display:inline" />
    <path
       fill="#741b47"
       d="m 335.13272,62.96063 v 0 C 335.13272,28.188436 363.32117,0 398.09335,0 v 0 c 16.69821,0 32.7125,6.633333 44.5199,18.440742 11.8074,11.807407 18.44073,27.82169 18.44073,44.519886 v 0 c 0,34.772198 -28.18844,62.960632 -62.96063,62.960632 v 0 c -34.77218,0 -62.96063,-28.188432 -62.96063,-62.960632 z"
       fill-rule="evenodd"
       id="path8"
       style="display:inline" />
    <path
       fill="#f1c232"
       d="m 335.13367,279.22003 v 0 c 0,-34.78088 28.18845,-62.97636 62.96063,-62.97636 v 0 c 16.69818,0 32.71246,6.63499 44.5199,18.44534 11.8074,11.81036 18.44073,27.82866 18.44073,44.53102 v 0 c 0,34.78091 -28.18844,62.97638 -62.96063,62.97638 v 0 c -34.77218,0 -62.96063,-28.19547 -62.96063,-62.97638 z"
       fill-rule="evenodd"
       id="path9"
       style="display:inline" />
    <path
       fill="#134f5c"
       d="m 523.3432,477.03903 v 0 c 0,-34.77219 28.18842,-62.96063 62.96063,-62.96063 v 0 c 16.69818,0 32.71247,6.63333 44.51984,18.44073 11.80743,11.80741 18.44073,27.82169 18.44073,44.5199 v 0 c 0,34.77219 -28.18841,62.9606 -62.96057,62.9606 v 0 c -34.77221,0 -62.96063,-28.18842 -62.96063,-62.9606 z"
       fill-rule="evenodd"
       id="path10"
       style="display:inline" />
    <path
       stroke="#595959"
       stroke-width="16"
       stroke-linejoin="round"
       stroke-linecap="butt"
       d="M 254.40703,432.51947 353.58814,323.76358"
       fill-rule="evenodd"
       id="path12"
       style="display:inline" />
    <path
       stroke="#595959"
       stroke-width="16"
       stroke-linejoin="round"
       stroke-linecap="butt"
       d="M 541.78394,432.51913 442.60282,323.76324"
       fill-rule="evenodd"
       id="path14"
       style="display:inline" />
    <path
       stroke="#595959"
       stroke-width="16"
       stroke-linejoin="round"
       stroke-linecap="butt"
       d="m 398.09335,125.92126 v 90.33071"
       fill-rule="evenodd"
       id="path16"
       style="display:inline" />
  </g>
</svg>
